<svg width="35" height="34" viewBox="0 0 35 34" fill="none" xmlns="http://www.w3.org/2000/svg">
<path d="M17.5 0C8.14965 0 0.5 7.64965 0.5 17C0.5 26.3504 8.14965 34 17.5 34C26.8504 34 34.5 26.3504 34.5 17C34.5 7.64965 26.8504 0 17.5 0ZM17.5 5.09858C20.3912 5.09858 22.6021 7.3095 22.6021 10.2007C22.6021 13.0919 20.3912 15.2993 17.5 15.2993C14.6088 15.2993 12.3979 13.0884 12.3979 10.1972C12.3979 7.30596 14.6088 5.09858 17.5 5.09858ZM17.5 29.2416C13.2482 29.2416 9.51021 27.0306 7.29929 23.8028C7.29929 20.4014 14.0986 18.5342 17.5 18.5342C20.9014 18.5342 27.7007 20.405 27.7007 23.8028C25.4898 27.0306 21.7518 29.2416 17.5 29.2416Z" fill="#8E9192"/>
</svg>
